<mxfile host="app.diagrams.net" modified="2021-03-02T07:29:20.227Z" agent="5.0 (Windows NT 10.0; Win64; x64) AppleWebKit/537.36 (KHTML, like Gecko) Chrome/88.0.4324.190 Safari/537.36" etag="ih0EkCEgEnk3SZNMQrMz" version="14.4.3" type="github" pages="2">
  <diagram id="q7pmUytelCXqH03sVGLO" name="Alarm501-CD-P1">
    <mxGraphModel dx="1422" dy="705" grid="1" gridSize="10" guides="1" tooltips="1" connect="1" arrows="1" fold="1" page="1" pageScale="1" pageWidth="850" pageHeight="1100" math="0" shadow="0">
      <root>
        <mxCell id="0" />
        <mxCell id="1" parent="0" />
        <mxCell id="dnACFB4frC-Y1pfGrbBy-49" value="" style="rounded=1;whiteSpace=wrap;html=1;" vertex="1" parent="1">
          <mxGeometry x="50" y="590" width="460" height="300" as="geometry" />
        </mxCell>
        <mxCell id="dnACFB4frC-Y1pfGrbBy-48" value="&lt;p style=&quot;line-height: 60%&quot;&gt;&lt;/p&gt;&lt;h1&gt;Coupling Ratio&lt;/h1&gt;&lt;p&gt;N(D) = 4 (InputForm, OutputForm, Timers, and AddEdit Alarm)&lt;/p&gt;&lt;p&gt;A, O, AO, AT, ATO, ATI, ATIO, OT, OTI&lt;/p&gt;&lt;p&gt;SD = 9&lt;/p&gt;&lt;p&gt;C(D) =&amp;nbsp;&lt;span&gt;Coupling Ratio = S(D)/N(D) = 9/4 = 2.25&lt;/span&gt;&lt;/p&gt;&lt;br&gt;&lt;p&gt;&lt;/p&gt;" style="text;html=1;strokeColor=none;fillColor=none;spacing=5;spacingTop=-20;whiteSpace=wrap;overflow=hidden;rounded=0;" vertex="1" parent="1">
          <mxGeometry x="80" y="630" width="410" height="240" as="geometry" />
        </mxCell>
        <mxCell id="7ZqNy2PUu_foSOqfSfQ1-40" value="InputForm" style="swimlane;fontStyle=1;align=center;verticalAlign=top;childLayout=stackLayout;horizontal=1;startSize=26;horizontalStack=0;resizeParent=1;resizeParentMax=0;resizeLast=0;collapsible=1;marginBottom=0;" vertex="1" parent="1">
          <mxGeometry x="60" y="110" width="350" height="242" as="geometry" />
        </mxCell>
        <mxCell id="7ZqNy2PUu_foSOqfSfQ1-41" value="- newTimer: Timer" style="text;strokeColor=none;fillColor=none;align=left;verticalAlign=top;spacingLeft=4;spacingRight=4;overflow=hidden;rotatable=0;points=[[0,0.5],[1,0.5]];portConstraint=eastwest;" vertex="1" parent="7ZqNy2PUu_foSOqfSfQ1-40">
          <mxGeometry y="26" width="350" height="26" as="geometry" />
        </mxCell>
        <mxCell id="7ZqNy2PUu_foSOqfSfQ1-42" value="- Timers: List&lt;Timer&gt;" style="text;strokeColor=none;fillColor=none;align=left;verticalAlign=top;spacingLeft=4;spacingRight=4;overflow=hidden;rotatable=0;points=[[0,0.5],[1,0.5]];portConstraint=eastwest;" vertex="1" parent="7ZqNy2PUu_foSOqfSfQ1-40">
          <mxGeometry y="52" width="350" height="26" as="geometry" />
        </mxCell>
        <mxCell id="7ZqNy2PUu_foSOqfSfQ1-43" value="- loadingFile: bool" style="text;strokeColor=none;fillColor=none;align=left;verticalAlign=top;spacingLeft=4;spacingRight=4;overflow=hidden;rotatable=0;points=[[0,0.5],[1,0.5]];portConstraint=eastwest;" vertex="1" parent="7ZqNy2PUu_foSOqfSfQ1-40">
          <mxGeometry y="78" width="350" height="26" as="geometry" />
        </mxCell>
        <mxCell id="7ZqNy2PUu_foSOqfSfQ1-44" value="" style="line;strokeWidth=1;fillColor=none;align=left;verticalAlign=middle;spacingTop=-1;spacingLeft=3;spacingRight=3;rotatable=0;labelPosition=right;points=[];portConstraint=eastwest;" vertex="1" parent="7ZqNy2PUu_foSOqfSfQ1-40">
          <mxGeometry y="104" width="350" height="8" as="geometry" />
        </mxCell>
        <mxCell id="7ZqNy2PUu_foSOqfSfQ1-45" value="+ btnPlus_Click(object, EventArgs): void" style="text;strokeColor=none;fillColor=none;align=left;verticalAlign=top;spacingLeft=4;spacingRight=4;overflow=hidden;rotatable=0;points=[[0,0.5],[1,0.5]];portConstraint=eastwest;" vertex="1" parent="7ZqNy2PUu_foSOqfSfQ1-40">
          <mxGeometry y="112" width="350" height="26" as="geometry" />
        </mxCell>
        <mxCell id="7ZqNy2PUu_foSOqfSfQ1-46" value="+ btnEdit_Click(object, EventArgs): void" style="text;strokeColor=none;fillColor=none;align=left;verticalAlign=top;spacingLeft=4;spacingRight=4;overflow=hidden;rotatable=0;points=[[0,0.5],[1,0.5]];portConstraint=eastwest;" vertex="1" parent="7ZqNy2PUu_foSOqfSfQ1-40">
          <mxGeometry y="138" width="350" height="26" as="geometry" />
        </mxCell>
        <mxCell id="7ZqNy2PUu_foSOqfSfQ1-47" value="+ btnSnooze_Click(object, EventArgs): void" style="text;strokeColor=none;fillColor=none;align=left;verticalAlign=top;spacingLeft=4;spacingRight=4;overflow=hidden;rotatable=0;points=[[0,0.5],[1,0.5]];portConstraint=eastwest;" vertex="1" parent="7ZqNy2PUu_foSOqfSfQ1-40">
          <mxGeometry y="164" width="350" height="26" as="geometry" />
        </mxCell>
        <mxCell id="7ZqNy2PUu_foSOqfSfQ1-48" value="+ btnStop_Click(object, EventArgs): void" style="text;strokeColor=none;fillColor=none;align=left;verticalAlign=top;spacingLeft=4;spacingRight=4;overflow=hidden;rotatable=0;points=[[0,0.5],[1,0.5]];portConstraint=eastwest;" vertex="1" parent="7ZqNy2PUu_foSOqfSfQ1-40">
          <mxGeometry y="190" width="350" height="26" as="geometry" />
        </mxCell>
        <mxCell id="7ZqNy2PUu_foSOqfSfQ1-49" value="+ listBox_SelectedIndexChanged(object, EventArgs): void" style="text;strokeColor=none;fillColor=none;align=left;verticalAlign=top;spacingLeft=4;spacingRight=4;overflow=hidden;rotatable=0;points=[[0,0.5],[1,0.5]];portConstraint=eastwest;" vertex="1" parent="7ZqNy2PUu_foSOqfSfQ1-40">
          <mxGeometry y="216" width="350" height="26" as="geometry" />
        </mxCell>
        <mxCell id="7ZqNy2PUu_foSOqfSfQ1-50" value="OutputForm" style="swimlane;fontStyle=1;align=center;verticalAlign=top;childLayout=stackLayout;horizontal=1;startSize=26;horizontalStack=0;resizeParent=1;resizeParentMax=0;resizeLast=0;collapsible=1;marginBottom=0;" vertex="1" parent="1">
          <mxGeometry x="70" y="370" width="260" height="164" as="geometry" />
        </mxCell>
        <mxCell id="7ZqNy2PUu_foSOqfSfQ1-51" value="- newTimer: Timer" style="text;strokeColor=none;fillColor=none;align=left;verticalAlign=top;spacingLeft=4;spacingRight=4;overflow=hidden;rotatable=0;points=[[0,0.5],[1,0.5]];portConstraint=eastwest;" vertex="1" parent="7ZqNy2PUu_foSOqfSfQ1-50">
          <mxGeometry y="26" width="260" height="26" as="geometry" />
        </mxCell>
        <mxCell id="7ZqNy2PUu_foSOqfSfQ1-52" value="- loadingFile: bool" style="text;strokeColor=none;fillColor=none;align=left;verticalAlign=top;spacingLeft=4;spacingRight=4;overflow=hidden;rotatable=0;points=[[0,0.5],[1,0.5]];portConstraint=eastwest;" vertex="1" parent="7ZqNy2PUu_foSOqfSfQ1-50">
          <mxGeometry y="52" width="260" height="26" as="geometry" />
        </mxCell>
        <mxCell id="7ZqNy2PUu_foSOqfSfQ1-53" value="- Timers: List&lt;Timer&gt;" style="text;strokeColor=none;fillColor=none;align=left;verticalAlign=top;spacingLeft=4;spacingRight=4;overflow=hidden;rotatable=0;points=[[0,0.5],[1,0.5]];portConstraint=eastwest;" vertex="1" parent="7ZqNy2PUu_foSOqfSfQ1-50">
          <mxGeometry y="78" width="260" height="26" as="geometry" />
        </mxCell>
        <mxCell id="7ZqNy2PUu_foSOqfSfQ1-54" value="" style="line;strokeWidth=1;fillColor=none;align=left;verticalAlign=middle;spacingTop=-1;spacingLeft=3;spacingRight=3;rotatable=0;labelPosition=right;points=[];portConstraint=eastwest;" vertex="1" parent="7ZqNy2PUu_foSOqfSfQ1-50">
          <mxGeometry y="104" width="260" height="8" as="geometry" />
        </mxCell>
        <mxCell id="7ZqNy2PUu_foSOqfSfQ1-55" value="+ AlarmGoesOff(): void" style="text;strokeColor=none;fillColor=none;align=left;verticalAlign=top;spacingLeft=4;spacingRight=4;overflow=hidden;rotatable=0;points=[[0,0.5],[1,0.5]];portConstraint=eastwest;" vertex="1" parent="7ZqNy2PUu_foSOqfSfQ1-50">
          <mxGeometry y="112" width="260" height="26" as="geometry" />
        </mxCell>
        <mxCell id="7ZqNy2PUu_foSOqfSfQ1-56" value="+ UpdateList(): void" style="text;strokeColor=none;fillColor=none;align=left;verticalAlign=top;spacingLeft=4;spacingRight=4;overflow=hidden;rotatable=0;points=[[0,0.5],[1,0.5]];portConstraint=eastwest;" vertex="1" parent="7ZqNy2PUu_foSOqfSfQ1-50">
          <mxGeometry y="138" width="260" height="26" as="geometry" />
        </mxCell>
        <mxCell id="7ZqNy2PUu_foSOqfSfQ1-57" value="Timer.cs" style="swimlane;fontStyle=1;align=center;verticalAlign=top;childLayout=stackLayout;horizontal=1;startSize=26;horizontalStack=0;resizeParent=1;resizeParentMax=0;resizeLast=0;collapsible=1;marginBottom=0;" vertex="1" parent="1">
          <mxGeometry x="710" y="30" width="260" height="346" as="geometry" />
        </mxCell>
        <mxCell id="7ZqNy2PUu_foSOqfSfQ1-58" value="+ show: bool" style="text;strokeColor=none;fillColor=none;align=left;verticalAlign=top;spacingLeft=4;spacingRight=4;overflow=hidden;rotatable=0;points=[[0,0.5],[1,0.5]];portConstraint=eastwest;" vertex="1" parent="7ZqNy2PUu_foSOqfSfQ1-57">
          <mxGeometry y="26" width="260" height="26" as="geometry" />
        </mxCell>
        <mxCell id="7ZqNy2PUu_foSOqfSfQ1-59" value="+ Time: string" style="text;strokeColor=none;fillColor=none;align=left;verticalAlign=top;spacingLeft=4;spacingRight=4;overflow=hidden;rotatable=0;points=[[0,0.5],[1,0.5]];portConstraint=eastwest;" vertex="1" parent="7ZqNy2PUu_foSOqfSfQ1-57">
          <mxGeometry y="52" width="260" height="26" as="geometry" />
        </mxCell>
        <mxCell id="7ZqNy2PUu_foSOqfSfQ1-60" value="- snoozetime: int" style="text;strokeColor=none;fillColor=none;align=left;verticalAlign=top;spacingLeft=4;spacingRight=4;overflow=hidden;rotatable=0;points=[[0,0.5],[1,0.5]];portConstraint=eastwest;" vertex="1" parent="7ZqNy2PUu_foSOqfSfQ1-57">
          <mxGeometry y="78" width="260" height="26" as="geometry" />
        </mxCell>
        <mxCell id="7ZqNy2PUu_foSOqfSfQ1-61" value="+ inList: bool" style="text;strokeColor=none;fillColor=none;align=left;verticalAlign=top;spacingLeft=4;spacingRight=4;overflow=hidden;rotatable=0;points=[[0,0.5],[1,0.5]];portConstraint=eastwest;" vertex="1" parent="7ZqNy2PUu_foSOqfSfQ1-57">
          <mxGeometry y="104" width="260" height="26" as="geometry" />
        </mxCell>
        <mxCell id="7ZqNy2PUu_foSOqfSfQ1-62" value="+ newAlarm: bool" style="text;strokeColor=none;fillColor=none;align=left;verticalAlign=top;spacingLeft=4;spacingRight=4;overflow=hidden;rotatable=0;points=[[0,0.5],[1,0.5]];portConstraint=eastwest;" vertex="1" parent="7ZqNy2PUu_foSOqfSfQ1-57">
          <mxGeometry y="130" width="260" height="26" as="geometry" />
        </mxCell>
        <mxCell id="7ZqNy2PUu_foSOqfSfQ1-63" value="+ AlarmWentOFF: bool" style="text;strokeColor=none;fillColor=none;align=left;verticalAlign=top;spacingLeft=4;spacingRight=4;overflow=hidden;rotatable=0;points=[[0,0.5],[1,0.5]];portConstraint=eastwest;" vertex="1" parent="7ZqNy2PUu_foSOqfSfQ1-57">
          <mxGeometry y="156" width="260" height="26" as="geometry" />
        </mxCell>
        <mxCell id="7ZqNy2PUu_foSOqfSfQ1-64" value="" style="line;strokeWidth=1;fillColor=none;align=left;verticalAlign=middle;spacingTop=-1;spacingLeft=3;spacingRight=3;rotatable=0;labelPosition=right;points=[];portConstraint=eastwest;" vertex="1" parent="7ZqNy2PUu_foSOqfSfQ1-57">
          <mxGeometry y="182" width="260" height="8" as="geometry" />
        </mxCell>
        <mxCell id="7ZqNy2PUu_foSOqfSfQ1-65" value="+ EditAlarm(DateTime, bool): void" style="text;strokeColor=none;fillColor=none;align=left;verticalAlign=top;spacingLeft=4;spacingRight=4;overflow=hidden;rotatable=0;points=[[0,0.5],[1,0.5]];portConstraint=eastwest;" vertex="1" parent="7ZqNy2PUu_foSOqfSfQ1-57">
          <mxGeometry y="190" width="260" height="26" as="geometry" />
        </mxCell>
        <mxCell id="7ZqNy2PUu_foSOqfSfQ1-66" value="+ setTimer(): void" style="text;strokeColor=none;fillColor=none;align=left;verticalAlign=top;spacingLeft=4;spacingRight=4;overflow=hidden;rotatable=0;points=[[0,0.5],[1,0.5]];portConstraint=eastwest;" vertex="1" parent="7ZqNy2PUu_foSOqfSfQ1-57">
          <mxGeometry y="216" width="260" height="26" as="geometry" />
        </mxCell>
        <mxCell id="7ZqNy2PUu_foSOqfSfQ1-67" value="+ AlarmGoesOff(object, EventArgs): void" style="text;strokeColor=none;fillColor=none;align=left;verticalAlign=top;spacingLeft=4;spacingRight=4;overflow=hidden;rotatable=0;points=[[0,0.5],[1,0.5]];portConstraint=eastwest;" vertex="1" parent="7ZqNy2PUu_foSOqfSfQ1-57">
          <mxGeometry y="242" width="260" height="26" as="geometry" />
        </mxCell>
        <mxCell id="7ZqNy2PUu_foSOqfSfQ1-68" value="+ Snooze(): void" style="text;strokeColor=none;fillColor=none;align=left;verticalAlign=top;spacingLeft=4;spacingRight=4;overflow=hidden;rotatable=0;points=[[0,0.5],[1,0.5]];portConstraint=eastwest;" vertex="1" parent="7ZqNy2PUu_foSOqfSfQ1-57">
          <mxGeometry y="268" width="260" height="26" as="geometry" />
        </mxCell>
        <mxCell id="7ZqNy2PUu_foSOqfSfQ1-69" value="+ ToString(): string &lt;&lt;override&gt;&gt;" style="text;strokeColor=none;fillColor=none;align=left;verticalAlign=top;spacingLeft=4;spacingRight=4;overflow=hidden;rotatable=0;points=[[0,0.5],[1,0.5]];portConstraint=eastwest;" vertex="1" parent="7ZqNy2PUu_foSOqfSfQ1-57">
          <mxGeometry y="294" width="260" height="26" as="geometry" />
        </mxCell>
        <mxCell id="7ZqNy2PUu_foSOqfSfQ1-70" value="+ ToFile(): string" style="text;strokeColor=none;fillColor=none;align=left;verticalAlign=top;spacingLeft=4;spacingRight=4;overflow=hidden;rotatable=0;points=[[0,0.5],[1,0.5]];portConstraint=eastwest;" vertex="1" parent="7ZqNy2PUu_foSOqfSfQ1-57">
          <mxGeometry y="320" width="260" height="26" as="geometry" />
        </mxCell>
        <mxCell id="7ZqNy2PUu_foSOqfSfQ1-71" value="AddEdit_Alarm" style="swimlane;fontStyle=1;align=center;verticalAlign=top;childLayout=stackLayout;horizontal=1;startSize=26;horizontalStack=0;resizeParent=1;resizeParentMax=0;resizeLast=0;collapsible=1;marginBottom=0;" vertex="1" parent="1">
          <mxGeometry x="710" y="458" width="260" height="112" as="geometry" />
        </mxCell>
        <mxCell id="7ZqNy2PUu_foSOqfSfQ1-72" value="+ timbs: Timer" style="text;strokeColor=none;fillColor=none;align=left;verticalAlign=top;spacingLeft=4;spacingRight=4;overflow=hidden;rotatable=0;points=[[0,0.5],[1,0.5]];portConstraint=eastwest;" vertex="1" parent="7ZqNy2PUu_foSOqfSfQ1-71">
          <mxGeometry y="26" width="260" height="26" as="geometry" />
        </mxCell>
        <mxCell id="7ZqNy2PUu_foSOqfSfQ1-73" value="" style="line;strokeWidth=1;fillColor=none;align=left;verticalAlign=middle;spacingTop=-1;spacingLeft=3;spacingRight=3;rotatable=0;labelPosition=right;points=[];portConstraint=eastwest;" vertex="1" parent="7ZqNy2PUu_foSOqfSfQ1-71">
          <mxGeometry y="52" width="260" height="8" as="geometry" />
        </mxCell>
        <mxCell id="7ZqNy2PUu_foSOqfSfQ1-74" value="- btnSet_Click(object, EventArgs): void" style="text;strokeColor=none;fillColor=none;align=left;verticalAlign=top;spacingLeft=4;spacingRight=4;overflow=hidden;rotatable=0;points=[[0,0.5],[1,0.5]];portConstraint=eastwest;" vertex="1" parent="7ZqNy2PUu_foSOqfSfQ1-71">
          <mxGeometry y="60" width="260" height="26" as="geometry" />
        </mxCell>
        <mxCell id="7ZqNy2PUu_foSOqfSfQ1-75" value="- btnCancel_Click(object, EventArgs): void" style="text;strokeColor=none;fillColor=none;align=left;verticalAlign=top;spacingLeft=4;spacingRight=4;overflow=hidden;rotatable=0;points=[[0,0.5],[1,0.5]];portConstraint=eastwest;" vertex="1" parent="7ZqNy2PUu_foSOqfSfQ1-71">
          <mxGeometry y="86" width="260" height="26" as="geometry" />
        </mxCell>
        <mxCell id="7ZqNy2PUu_foSOqfSfQ1-76" value="&lt;br&gt;" style="html=1;verticalAlign=bottom;endArrow=open;endFill=0;exitX=0.5;exitY=0;exitDx=0;exitDy=0;" edge="1" parent="1" source="7ZqNy2PUu_foSOqfSfQ1-71">
          <mxGeometry x="0.2" y="-10" width="80" relative="1" as="geometry">
            <mxPoint x="1060" y="500" as="sourcePoint" />
            <mxPoint x="840" y="378" as="targetPoint" />
            <mxPoint as="offset" />
          </mxGeometry>
        </mxCell>
        <mxCell id="7ZqNy2PUu_foSOqfSfQ1-77" value="&lt;br&gt;" style="html=1;verticalAlign=bottom;endArrow=none;endFill=0;entryX=-0.004;entryY=0.885;entryDx=0;entryDy=0;entryPerimeter=0;exitX=1;exitY=0.5;exitDx=0;exitDy=0;startArrow=open;startFill=0;" edge="1" parent="1" source="7ZqNy2PUu_foSOqfSfQ1-51" target="7ZqNy2PUu_foSOqfSfQ1-70">
          <mxGeometry x="0.2" y="-10" width="80" relative="1" as="geometry">
            <mxPoint x="490" y="233" as="sourcePoint" />
            <mxPoint x="530" y="150" as="targetPoint" />
            <mxPoint as="offset" />
            <Array as="points" />
          </mxGeometry>
        </mxCell>
        <mxCell id="7ZqNy2PUu_foSOqfSfQ1-78" value="1" style="endArrow=open;html=1;endSize=12;startArrow=diamondThin;startSize=14;startFill=0;edgeStyle=orthogonalEdgeStyle;align=left;verticalAlign=bottom;entryX=-0.015;entryY=0.808;entryDx=0;entryDy=0;entryPerimeter=0;" edge="1" parent="1" target="7ZqNy2PUu_foSOqfSfQ1-68">
          <mxGeometry x="-1" y="50" relative="1" as="geometry">
            <mxPoint x="410" y="320" as="sourcePoint" />
            <mxPoint x="670" y="320" as="targetPoint" />
            <Array as="points">
              <mxPoint x="440" y="320" />
              <mxPoint x="440" y="319" />
            </Array>
            <mxPoint as="offset" />
          </mxGeometry>
        </mxCell>
      </root>
    </mxGraphModel>
  </diagram>
  <diagram id="I2vstWl_AC3JcibqqzYz" name="Alarm501-CD-P2">
    <mxGraphModel dx="2031" dy="1089" grid="1" gridSize="10" guides="1" tooltips="1" connect="1" arrows="1" fold="1" page="1" pageScale="1" pageWidth="850" pageHeight="1100" math="0" shadow="0">
      <root>
        <mxCell id="nox-hN8bmY3Rbv4VR7ri-0" />
        <mxCell id="nox-hN8bmY3Rbv4VR7ri-1" parent="nox-hN8bmY3Rbv4VR7ri-0" />
        <mxCell id="nox-hN8bmY3Rbv4VR7ri-3" value="InputForm" style="swimlane;fontStyle=1;align=center;verticalAlign=top;childLayout=stackLayout;horizontal=1;startSize=26;horizontalStack=0;resizeParent=1;resizeParentMax=0;resizeLast=0;collapsible=1;marginBottom=0;" vertex="1" parent="nox-hN8bmY3Rbv4VR7ri-1">
          <mxGeometry x="100" y="90" width="350" height="242" as="geometry" />
        </mxCell>
        <mxCell id="nox-hN8bmY3Rbv4VR7ri-4" value="- newTimer: Timer" style="text;strokeColor=none;fillColor=none;align=left;verticalAlign=top;spacingLeft=4;spacingRight=4;overflow=hidden;rotatable=0;points=[[0,0.5],[1,0.5]];portConstraint=eastwest;" vertex="1" parent="nox-hN8bmY3Rbv4VR7ri-3">
          <mxGeometry y="26" width="350" height="26" as="geometry" />
        </mxCell>
        <mxCell id="nox-hN8bmY3Rbv4VR7ri-23" value="- Timers: List&lt;Timer&gt;" style="text;strokeColor=none;fillColor=none;align=left;verticalAlign=top;spacingLeft=4;spacingRight=4;overflow=hidden;rotatable=0;points=[[0,0.5],[1,0.5]];portConstraint=eastwest;" vertex="1" parent="nox-hN8bmY3Rbv4VR7ri-3">
          <mxGeometry y="52" width="350" height="26" as="geometry" />
        </mxCell>
        <mxCell id="nox-hN8bmY3Rbv4VR7ri-22" value="- loadingFile: bool" style="text;strokeColor=none;fillColor=none;align=left;verticalAlign=top;spacingLeft=4;spacingRight=4;overflow=hidden;rotatable=0;points=[[0,0.5],[1,0.5]];portConstraint=eastwest;" vertex="1" parent="nox-hN8bmY3Rbv4VR7ri-3">
          <mxGeometry y="78" width="350" height="26" as="geometry" />
        </mxCell>
        <mxCell id="nox-hN8bmY3Rbv4VR7ri-5" value="" style="line;strokeWidth=1;fillColor=none;align=left;verticalAlign=middle;spacingTop=-1;spacingLeft=3;spacingRight=3;rotatable=0;labelPosition=right;points=[];portConstraint=eastwest;" vertex="1" parent="nox-hN8bmY3Rbv4VR7ri-3">
          <mxGeometry y="104" width="350" height="8" as="geometry" />
        </mxCell>
        <mxCell id="nox-hN8bmY3Rbv4VR7ri-6" value="+ btnPlus_Click(object, EventArgs): void" style="text;strokeColor=none;fillColor=none;align=left;verticalAlign=top;spacingLeft=4;spacingRight=4;overflow=hidden;rotatable=0;points=[[0,0.5],[1,0.5]];portConstraint=eastwest;" vertex="1" parent="nox-hN8bmY3Rbv4VR7ri-3">
          <mxGeometry y="112" width="350" height="26" as="geometry" />
        </mxCell>
        <mxCell id="nox-hN8bmY3Rbv4VR7ri-11" value="+ btnEdit_Click(object, EventArgs): void" style="text;strokeColor=none;fillColor=none;align=left;verticalAlign=top;spacingLeft=4;spacingRight=4;overflow=hidden;rotatable=0;points=[[0,0.5],[1,0.5]];portConstraint=eastwest;" vertex="1" parent="nox-hN8bmY3Rbv4VR7ri-3">
          <mxGeometry y="138" width="350" height="26" as="geometry" />
        </mxCell>
        <mxCell id="nox-hN8bmY3Rbv4VR7ri-12" value="+ btnSnooze_Click(object, EventArgs): void" style="text;strokeColor=none;fillColor=none;align=left;verticalAlign=top;spacingLeft=4;spacingRight=4;overflow=hidden;rotatable=0;points=[[0,0.5],[1,0.5]];portConstraint=eastwest;" vertex="1" parent="nox-hN8bmY3Rbv4VR7ri-3">
          <mxGeometry y="164" width="350" height="26" as="geometry" />
        </mxCell>
        <mxCell id="nox-hN8bmY3Rbv4VR7ri-21" value="+ btnStop_Click(object, EventArgs): void" style="text;strokeColor=none;fillColor=none;align=left;verticalAlign=top;spacingLeft=4;spacingRight=4;overflow=hidden;rotatable=0;points=[[0,0.5],[1,0.5]];portConstraint=eastwest;" vertex="1" parent="nox-hN8bmY3Rbv4VR7ri-3">
          <mxGeometry y="190" width="350" height="26" as="geometry" />
        </mxCell>
        <mxCell id="nox-hN8bmY3Rbv4VR7ri-19" value="+ listBox_SelectedIndexChanged(object, EventArgs): void" style="text;strokeColor=none;fillColor=none;align=left;verticalAlign=top;spacingLeft=4;spacingRight=4;overflow=hidden;rotatable=0;points=[[0,0.5],[1,0.5]];portConstraint=eastwest;" vertex="1" parent="nox-hN8bmY3Rbv4VR7ri-3">
          <mxGeometry y="216" width="350" height="26" as="geometry" />
        </mxCell>
        <mxCell id="nox-hN8bmY3Rbv4VR7ri-7" value="OutputForm" style="swimlane;fontStyle=1;align=center;verticalAlign=top;childLayout=stackLayout;horizontal=1;startSize=26;horizontalStack=0;resizeParent=1;resizeParentMax=0;resizeLast=0;collapsible=1;marginBottom=0;" vertex="1" parent="nox-hN8bmY3Rbv4VR7ri-1">
          <mxGeometry x="100" y="360" width="260" height="164" as="geometry" />
        </mxCell>
        <mxCell id="nox-hN8bmY3Rbv4VR7ri-24" value="- newTimer: Timer" style="text;strokeColor=none;fillColor=none;align=left;verticalAlign=top;spacingLeft=4;spacingRight=4;overflow=hidden;rotatable=0;points=[[0,0.5],[1,0.5]];portConstraint=eastwest;" vertex="1" parent="nox-hN8bmY3Rbv4VR7ri-7">
          <mxGeometry y="26" width="260" height="26" as="geometry" />
        </mxCell>
        <mxCell id="nox-hN8bmY3Rbv4VR7ri-26" value="- loadingFile: bool" style="text;strokeColor=none;fillColor=none;align=left;verticalAlign=top;spacingLeft=4;spacingRight=4;overflow=hidden;rotatable=0;points=[[0,0.5],[1,0.5]];portConstraint=eastwest;" vertex="1" parent="nox-hN8bmY3Rbv4VR7ri-7">
          <mxGeometry y="52" width="260" height="26" as="geometry" />
        </mxCell>
        <mxCell id="nox-hN8bmY3Rbv4VR7ri-25" value="- Timers: List&lt;Timer&gt;" style="text;strokeColor=none;fillColor=none;align=left;verticalAlign=top;spacingLeft=4;spacingRight=4;overflow=hidden;rotatable=0;points=[[0,0.5],[1,0.5]];portConstraint=eastwest;" vertex="1" parent="nox-hN8bmY3Rbv4VR7ri-7">
          <mxGeometry y="78" width="260" height="26" as="geometry" />
        </mxCell>
        <mxCell id="nox-hN8bmY3Rbv4VR7ri-9" value="" style="line;strokeWidth=1;fillColor=none;align=left;verticalAlign=middle;spacingTop=-1;spacingLeft=3;spacingRight=3;rotatable=0;labelPosition=right;points=[];portConstraint=eastwest;" vertex="1" parent="nox-hN8bmY3Rbv4VR7ri-7">
          <mxGeometry y="104" width="260" height="8" as="geometry" />
        </mxCell>
        <mxCell id="nox-hN8bmY3Rbv4VR7ri-10" value="+ AlarmGoesOff(): void" style="text;strokeColor=none;fillColor=none;align=left;verticalAlign=top;spacingLeft=4;spacingRight=4;overflow=hidden;rotatable=0;points=[[0,0.5],[1,0.5]];portConstraint=eastwest;" vertex="1" parent="nox-hN8bmY3Rbv4VR7ri-7">
          <mxGeometry y="112" width="260" height="26" as="geometry" />
        </mxCell>
        <mxCell id="nox-hN8bmY3Rbv4VR7ri-20" value="+ UpdateList(): void" style="text;strokeColor=none;fillColor=none;align=left;verticalAlign=top;spacingLeft=4;spacingRight=4;overflow=hidden;rotatable=0;points=[[0,0.5],[1,0.5]];portConstraint=eastwest;" vertex="1" parent="nox-hN8bmY3Rbv4VR7ri-7">
          <mxGeometry y="138" width="260" height="26" as="geometry" />
        </mxCell>
        <mxCell id="nox-hN8bmY3Rbv4VR7ri-27" value="Timer.cs" style="swimlane;fontStyle=1;align=center;verticalAlign=top;childLayout=stackLayout;horizontal=1;startSize=26;horizontalStack=0;resizeParent=1;resizeParentMax=0;resizeLast=0;collapsible=1;marginBottom=0;" vertex="1" parent="nox-hN8bmY3Rbv4VR7ri-1">
          <mxGeometry x="740" y="20" width="260" height="346" as="geometry" />
        </mxCell>
        <mxCell id="nox-hN8bmY3Rbv4VR7ri-28" value="+ show: bool" style="text;strokeColor=none;fillColor=none;align=left;verticalAlign=top;spacingLeft=4;spacingRight=4;overflow=hidden;rotatable=0;points=[[0,0.5],[1,0.5]];portConstraint=eastwest;" vertex="1" parent="nox-hN8bmY3Rbv4VR7ri-27">
          <mxGeometry y="26" width="260" height="26" as="geometry" />
        </mxCell>
        <mxCell id="nox-hN8bmY3Rbv4VR7ri-38" value="+ Time: string" style="text;strokeColor=none;fillColor=none;align=left;verticalAlign=top;spacingLeft=4;spacingRight=4;overflow=hidden;rotatable=0;points=[[0,0.5],[1,0.5]];portConstraint=eastwest;" vertex="1" parent="nox-hN8bmY3Rbv4VR7ri-27">
          <mxGeometry y="52" width="260" height="26" as="geometry" />
        </mxCell>
        <mxCell id="nox-hN8bmY3Rbv4VR7ri-39" value="- snoozetime: int" style="text;strokeColor=none;fillColor=none;align=left;verticalAlign=top;spacingLeft=4;spacingRight=4;overflow=hidden;rotatable=0;points=[[0,0.5],[1,0.5]];portConstraint=eastwest;" vertex="1" parent="nox-hN8bmY3Rbv4VR7ri-27">
          <mxGeometry y="78" width="260" height="26" as="geometry" />
        </mxCell>
        <mxCell id="nox-hN8bmY3Rbv4VR7ri-44" value="+ inList: bool" style="text;strokeColor=none;fillColor=none;align=left;verticalAlign=top;spacingLeft=4;spacingRight=4;overflow=hidden;rotatable=0;points=[[0,0.5],[1,0.5]];portConstraint=eastwest;" vertex="1" parent="nox-hN8bmY3Rbv4VR7ri-27">
          <mxGeometry y="104" width="260" height="26" as="geometry" />
        </mxCell>
        <mxCell id="nox-hN8bmY3Rbv4VR7ri-43" value="+ newAlarm: bool" style="text;strokeColor=none;fillColor=none;align=left;verticalAlign=top;spacingLeft=4;spacingRight=4;overflow=hidden;rotatable=0;points=[[0,0.5],[1,0.5]];portConstraint=eastwest;" vertex="1" parent="nox-hN8bmY3Rbv4VR7ri-27">
          <mxGeometry y="130" width="260" height="26" as="geometry" />
        </mxCell>
        <mxCell id="nox-hN8bmY3Rbv4VR7ri-42" value="+ AlarmWentOFF: bool" style="text;strokeColor=none;fillColor=none;align=left;verticalAlign=top;spacingLeft=4;spacingRight=4;overflow=hidden;rotatable=0;points=[[0,0.5],[1,0.5]];portConstraint=eastwest;" vertex="1" parent="nox-hN8bmY3Rbv4VR7ri-27">
          <mxGeometry y="156" width="260" height="26" as="geometry" />
        </mxCell>
        <mxCell id="nox-hN8bmY3Rbv4VR7ri-29" value="" style="line;strokeWidth=1;fillColor=none;align=left;verticalAlign=middle;spacingTop=-1;spacingLeft=3;spacingRight=3;rotatable=0;labelPosition=right;points=[];portConstraint=eastwest;" vertex="1" parent="nox-hN8bmY3Rbv4VR7ri-27">
          <mxGeometry y="182" width="260" height="8" as="geometry" />
        </mxCell>
        <mxCell id="nox-hN8bmY3Rbv4VR7ri-46" value="+ EditAlarm(DateTime, bool): void" style="text;strokeColor=none;fillColor=none;align=left;verticalAlign=top;spacingLeft=4;spacingRight=4;overflow=hidden;rotatable=0;points=[[0,0.5],[1,0.5]];portConstraint=eastwest;" vertex="1" parent="nox-hN8bmY3Rbv4VR7ri-27">
          <mxGeometry y="190" width="260" height="26" as="geometry" />
        </mxCell>
        <mxCell id="nox-hN8bmY3Rbv4VR7ri-47" value="+ setTimer(): void" style="text;strokeColor=none;fillColor=none;align=left;verticalAlign=top;spacingLeft=4;spacingRight=4;overflow=hidden;rotatable=0;points=[[0,0.5],[1,0.5]];portConstraint=eastwest;" vertex="1" parent="nox-hN8bmY3Rbv4VR7ri-27">
          <mxGeometry y="216" width="260" height="26" as="geometry" />
        </mxCell>
        <mxCell id="nox-hN8bmY3Rbv4VR7ri-45" value="+ AlarmGoesOff(object, EventArgs): void" style="text;strokeColor=none;fillColor=none;align=left;verticalAlign=top;spacingLeft=4;spacingRight=4;overflow=hidden;rotatable=0;points=[[0,0.5],[1,0.5]];portConstraint=eastwest;" vertex="1" parent="nox-hN8bmY3Rbv4VR7ri-27">
          <mxGeometry y="242" width="260" height="26" as="geometry" />
        </mxCell>
        <mxCell id="nox-hN8bmY3Rbv4VR7ri-48" value="+ Snooze(): void" style="text;strokeColor=none;fillColor=none;align=left;verticalAlign=top;spacingLeft=4;spacingRight=4;overflow=hidden;rotatable=0;points=[[0,0.5],[1,0.5]];portConstraint=eastwest;" vertex="1" parent="nox-hN8bmY3Rbv4VR7ri-27">
          <mxGeometry y="268" width="260" height="26" as="geometry" />
        </mxCell>
        <mxCell id="nox-hN8bmY3Rbv4VR7ri-30" value="+ ToString(): string &lt;&lt;override&gt;&gt;" style="text;strokeColor=none;fillColor=none;align=left;verticalAlign=top;spacingLeft=4;spacingRight=4;overflow=hidden;rotatable=0;points=[[0,0.5],[1,0.5]];portConstraint=eastwest;" vertex="1" parent="nox-hN8bmY3Rbv4VR7ri-27">
          <mxGeometry y="294" width="260" height="26" as="geometry" />
        </mxCell>
        <mxCell id="nox-hN8bmY3Rbv4VR7ri-49" value="+ ToFile(): string" style="text;strokeColor=none;fillColor=none;align=left;verticalAlign=top;spacingLeft=4;spacingRight=4;overflow=hidden;rotatable=0;points=[[0,0.5],[1,0.5]];portConstraint=eastwest;" vertex="1" parent="nox-hN8bmY3Rbv4VR7ri-27">
          <mxGeometry y="320" width="260" height="26" as="geometry" />
        </mxCell>
        <mxCell id="nox-hN8bmY3Rbv4VR7ri-50" value="Classname" style="swimlane;fontStyle=1;align=center;verticalAlign=top;childLayout=stackLayout;horizontal=1;startSize=26;horizontalStack=0;resizeParent=1;resizeParentMax=0;resizeLast=0;collapsible=1;marginBottom=0;" vertex="1" parent="nox-hN8bmY3Rbv4VR7ri-1">
          <mxGeometry x="740" y="448" width="260" height="112" as="geometry" />
        </mxCell>
        <mxCell id="nox-hN8bmY3Rbv4VR7ri-51" value="+ timbs: Timer" style="text;strokeColor=none;fillColor=none;align=left;verticalAlign=top;spacingLeft=4;spacingRight=4;overflow=hidden;rotatable=0;points=[[0,0.5],[1,0.5]];portConstraint=eastwest;" vertex="1" parent="nox-hN8bmY3Rbv4VR7ri-50">
          <mxGeometry y="26" width="260" height="26" as="geometry" />
        </mxCell>
        <mxCell id="nox-hN8bmY3Rbv4VR7ri-52" value="" style="line;strokeWidth=1;fillColor=none;align=left;verticalAlign=middle;spacingTop=-1;spacingLeft=3;spacingRight=3;rotatable=0;labelPosition=right;points=[];portConstraint=eastwest;" vertex="1" parent="nox-hN8bmY3Rbv4VR7ri-50">
          <mxGeometry y="52" width="260" height="8" as="geometry" />
        </mxCell>
        <mxCell id="nox-hN8bmY3Rbv4VR7ri-53" value="- btnSet_Click(object, EventArgs): void" style="text;strokeColor=none;fillColor=none;align=left;verticalAlign=top;spacingLeft=4;spacingRight=4;overflow=hidden;rotatable=0;points=[[0,0.5],[1,0.5]];portConstraint=eastwest;" vertex="1" parent="nox-hN8bmY3Rbv4VR7ri-50">
          <mxGeometry y="60" width="260" height="26" as="geometry" />
        </mxCell>
        <mxCell id="nox-hN8bmY3Rbv4VR7ri-54" value="- btnCancel_Click(object, EventArgs): void" style="text;strokeColor=none;fillColor=none;align=left;verticalAlign=top;spacingLeft=4;spacingRight=4;overflow=hidden;rotatable=0;points=[[0,0.5],[1,0.5]];portConstraint=eastwest;" vertex="1" parent="nox-hN8bmY3Rbv4VR7ri-50">
          <mxGeometry y="86" width="260" height="26" as="geometry" />
        </mxCell>
        <mxCell id="nox-hN8bmY3Rbv4VR7ri-55" value="&lt;br&gt;" style="html=1;verticalAlign=bottom;endArrow=open;endFill=0;exitX=0.5;exitY=0;exitDx=0;exitDy=0;" edge="1" parent="nox-hN8bmY3Rbv4VR7ri-1" source="nox-hN8bmY3Rbv4VR7ri-50">
          <mxGeometry x="0.2" y="-10" width="80" relative="1" as="geometry">
            <mxPoint x="1090" y="490" as="sourcePoint" />
            <mxPoint x="870" y="368" as="targetPoint" />
            <mxPoint as="offset" />
          </mxGeometry>
        </mxCell>
        <mxCell id="nox-hN8bmY3Rbv4VR7ri-57" value="&lt;br&gt;" style="html=1;verticalAlign=bottom;endArrow=none;endFill=0;entryX=-0.004;entryY=0.885;entryDx=0;entryDy=0;entryPerimeter=0;exitX=1;exitY=0.5;exitDx=0;exitDy=0;startArrow=open;startFill=0;" edge="1" parent="nox-hN8bmY3Rbv4VR7ri-1" source="nox-hN8bmY3Rbv4VR7ri-24" target="nox-hN8bmY3Rbv4VR7ri-49">
          <mxGeometry x="0.2" y="-10" width="80" relative="1" as="geometry">
            <mxPoint x="520" y="223" as="sourcePoint" />
            <mxPoint x="560" y="140" as="targetPoint" />
            <mxPoint as="offset" />
            <Array as="points" />
          </mxGeometry>
        </mxCell>
        <mxCell id="nox-hN8bmY3Rbv4VR7ri-59" value="1" style="endArrow=open;html=1;endSize=12;startArrow=diamondThin;startSize=14;startFill=0;edgeStyle=orthogonalEdgeStyle;align=left;verticalAlign=bottom;entryX=0;entryY=0.5;entryDx=0;entryDy=0;" edge="1" parent="nox-hN8bmY3Rbv4VR7ri-1" target="nox-hN8bmY3Rbv4VR7ri-48">
          <mxGeometry x="-1" y="3" relative="1" as="geometry">
            <mxPoint x="450" y="301" as="sourcePoint" />
            <mxPoint x="720" y="290" as="targetPoint" />
            <Array as="points">
              <mxPoint x="620" y="300" />
            </Array>
          </mxGeometry>
        </mxCell>
      </root>
    </mxGraphModel>
  </diagram>
</mxfile>
